<?xml version="1.0" encoding="utf-8"?>
<!-- Generator: Adobe Illustrator 19.0.0, SVG Export Plug-In . SVG Version: 6.00 Build 0)  -->
<svg version="1.1" id="Layer_1" xmlns="http://www.w3.org/2000/svg" xmlns:xlink="http://www.w3.org/1999/xlink" x="0px" y="0px"
	 viewBox="0 0 214.2 49.4" style="enable-background:new 0 0 214.2 49.4;" xml:space="preserve">
<style type="text/css">
	.st0{fill:#FFFFFF;}
</style>
<path class="st0" d="M39.6,0v21.7h21.7V0H39.6z M54.8,18.6c-1.2,1-2.6,1.5-4.3,1.5c-0.8,0-1.6-0.1-2.4-0.4c-0.8-0.2-1.5-0.5-2.1-0.9
	l-0.5,0.9h-1l-0.2-6.1h1c0.2,0.8,0.5,1.4,0.7,2c0.3,0.6,0.7,1.2,1.1,1.7c0.4,0.5,0.9,0.9,1.5,1.2c0.6,0.3,1.3,0.4,2,0.4
	c0.6,0,1.1-0.1,1.5-0.2c0.4-0.2,0.8-0.4,1.1-0.6c0.3-0.3,0.5-0.6,0.6-1c0.1-0.4,0.2-0.8,0.2-1.3c0-0.7-0.2-1.4-0.6-2
	c-0.4-0.6-1-1.1-1.8-1.4c-0.5-0.2-1.2-0.5-1.9-0.7c-0.7-0.3-1.3-0.5-1.8-0.7c-1-0.5-1.8-1-2.3-1.8c-0.6-0.7-0.8-1.7-0.8-2.9
	c0-0.7,0.1-1.3,0.4-1.9c0.3-0.6,0.7-1.1,1.2-1.6c0.5-0.4,1.1-0.8,1.7-1c0.7-0.2,1.4-0.4,2.1-0.4c0.8,0,1.6,0.1,2.2,0.4
	c0.7,0.3,1.2,0.5,1.8,0.9l0.5-0.9h1l0.1,5.9h-1c-0.2-0.7-0.4-1.3-0.6-2c-0.2-0.6-0.5-1.2-0.9-1.7C52.9,3.7,52.5,3.3,52,3
	c-0.5-0.3-1.2-0.4-1.9-0.4c-0.8,0-1.5,0.3-2,0.8c-0.6,0.5-0.8,1.1-0.8,1.9c0,0.8,0.2,1.4,0.5,1.9c0.4,0.5,0.9,0.9,1.6,1.3
	c0.6,0.3,1.2,0.5,1.8,0.8c0.6,0.2,1.2,0.4,1.7,0.7c0.5,0.2,1,0.5,1.5,0.7c0.5,0.3,0.9,0.6,1.2,1c0.4,0.4,0.7,0.9,0.8,1.4
	c0.2,0.5,0.3,1.1,0.3,1.7C56.6,16.2,56,17.5,54.8,18.6z"/>
<path class="st0" d="M39.6,27.7v21.7h21.7V27.7H39.6z M58.3,35h-0.6c-0.3-1.3-0.8-2.3-1.5-3.2c-0.2-0.3-0.4-0.5-0.6-0.7
	s-0.5-0.4-0.9-0.7c-0.4-0.2-0.8-0.4-1.3-0.5c-0.5-0.1-1.1-0.2-1.7-0.2c-1.9,0-3.4,0.8-4.5,2.3c-1,1.5-1.6,3.7-1.6,6.6
	c0,2.9,0.5,5.1,1.6,6.5c1,1.5,2.5,2.2,4.5,2.2c0.6,0,1.2-0.1,1.7-0.2c0.5-0.1,1-0.3,1.3-0.5c0.4-0.2,0.6-0.4,0.9-0.7
	s0.4-0.5,0.6-0.7c0.7-0.9,1.2-2,1.5-3.2h0.6v6h-0.6c-0.1-0.2-0.2-0.4-0.3-0.5c-0.1-0.1-0.2-0.2-0.3-0.3c-0.1-0.1-0.3-0.1-0.5-0.1
	c-0.3,0-0.7,0.1-1.2,0.3C54.3,47.8,53,48,51.7,48c-1.2,0-2.3-0.2-3.4-0.6s-2.1-1-2.9-1.8c-0.9-0.8-1.5-1.8-2.1-3s-0.8-2.5-0.8-4
	c0-1.2,0.2-2.2,0.5-3.3c0.3-1,0.8-1.9,1.4-2.7c0.6-0.8,1.3-1.4,2-2c0.8-0.6,1.6-1,2.5-1.2c0.9-0.3,1.8-0.4,2.7-0.4
	c1.3,0,2.6,0.2,3.7,0.6c0.5,0.2,0.9,0.3,1.2,0.3c0.3,0,0.5-0.1,0.6-0.2c0.2-0.1,0.3-0.4,0.5-0.7h0.6V35z"/>
<polygon class="st0" points="11.2,10.9 16.3,9.4 11.2,7.9 11.8,5.7 9.6,6.4 8.1,1.3 6.6,6.4 4.4,5.7 5.1,7.9 0,9.4 5.1,10.9 
	4.4,13.2 6.6,12.5 8.1,17.6 9.6,12.5 11.8,13.2 "/>
<polygon class="st0" points="13.1,39.3 18.1,37.8 13.1,36.3 13.7,34.1 11.5,34.7 10,29.7 8.5,34.7 6.3,34.1 6.9,36.3 1.9,37.8 
	6.9,39.3 6.3,41.5 8.5,40.9 10,45.9 11.5,40.9 13.7,41.5 "/>
<polygon class="st0" points="30.5,26.8 38.6,24.7 30.5,22.6 31.5,19.5 28,20.4 25.6,13.2 23.2,20.4 19.6,19.5 20.6,22.6 12.5,24.7 
	20.6,26.8 19.6,29.9 23.2,29 25.6,36.1 28,29 31.5,29.9 "/>
<rect x="25.6" y="24.2" class="st0" width="189.1" height="1"/>
<g>
	<path class="st0" d="M71.9,18h-4v-0.4c0.1,0,0.3,0,0.5,0c0.2,0,0.4,0,0.5-0.1c0.1-0.1,0.2-0.1,0.3-0.2c0.1-0.1,0.1-0.2,0.1-0.4
		v-6.5c0-0.1,0-0.3-0.1-0.4c0-0.1-0.2-0.2-0.3-0.2c-0.1-0.1-0.3-0.1-0.5-0.1c-0.2,0-0.3-0.1-0.5-0.1V9.1h4v0.4c-0.1,0-0.3,0-0.5,0
		S71,9.6,70.9,9.7c-0.2,0.1-0.3,0.1-0.3,0.2c-0.1,0.1-0.1,0.2-0.1,0.4v6.5c0,0.1,0,0.3,0.1,0.4c0.1,0.1,0.2,0.2,0.3,0.3
		c0.1,0,0.2,0.1,0.4,0.1s0.4,0.1,0.5,0.1V18z"/>
	<path class="st0" d="M88,18h-2.4c-0.5-0.8-1-1.6-1.5-2.2c-0.4-0.6-0.9-1.2-1.4-1.9h-0.9v2.8c0,0.1,0,0.3,0.1,0.4
		c0,0.1,0.1,0.2,0.3,0.3c0.1,0,0.2,0.1,0.4,0.1c0.2,0,0.3,0,0.5,0V18h-3.8v-0.4c0.1,0,0.2,0,0.4,0c0.2,0,0.3,0,0.4-0.1
		c0.1-0.1,0.2-0.1,0.3-0.2c0.1-0.1,0.1-0.2,0.1-0.4v-6.5c0-0.1,0-0.3-0.1-0.4c0-0.1-0.1-0.2-0.3-0.3c-0.1,0-0.2-0.1-0.4-0.1
		c-0.2,0-0.3-0.1-0.4-0.1V9.1h4.1c0.4,0,0.7,0,1.1,0.1c0.3,0.1,0.6,0.2,0.9,0.4c0.3,0.2,0.5,0.4,0.6,0.7c0.2,0.3,0.2,0.6,0.2,1
		c0,0.3-0.1,0.7-0.2,0.9c-0.1,0.3-0.3,0.5-0.5,0.7c-0.2,0.2-0.4,0.3-0.7,0.5c-0.3,0.1-0.6,0.2-0.9,0.3c0.4,0.6,0.8,1.1,1.1,1.5
		s0.7,0.9,1.1,1.5c0.2,0.3,0.4,0.4,0.5,0.6c0.1,0.1,0.3,0.2,0.4,0.3c0.1,0.1,0.2,0.1,0.4,0.1c0.2,0,0.3,0,0.4,0.1V18z M84.6,11.3
		c0-0.5-0.2-1-0.5-1.3c-0.3-0.3-0.8-0.5-1.3-0.5h-1.1v3.8h0.8c0.6,0,1.1-0.2,1.5-0.6C84.5,12.5,84.6,12,84.6,11.3z"/>
	<path class="st0" d="M98.5,18h-4v-0.4c0.1,0,0.3,0,0.5,0c0.2,0,0.4,0,0.5-0.1c0.1-0.1,0.2-0.1,0.3-0.2c0.1-0.1,0.1-0.2,0.1-0.4
		v-6.5c0-0.1,0-0.3-0.1-0.4c0-0.1-0.2-0.2-0.3-0.2c-0.1-0.1-0.3-0.1-0.5-0.1c-0.2,0-0.3-0.1-0.5-0.1V9.1h4v0.4c-0.1,0-0.3,0-0.5,0
		s-0.3,0.1-0.5,0.1c-0.2,0.1-0.3,0.1-0.3,0.2c-0.1,0.1-0.1,0.2-0.1,0.4v6.5c0,0.1,0,0.3,0.1,0.4c0.1,0.1,0.2,0.2,0.3,0.3
		c0.1,0,0.2,0.1,0.4,0.1s0.4,0.1,0.5,0.1V18z"/>
	<path class="st0" d="M111.8,9.5c-0.1,0-0.3,0-0.5,0.1c-0.2,0-0.4,0.1-0.6,0.2c-0.1,0.1-0.2,0.3-0.3,0.6c-0.1,0.3-0.1,0.7-0.1,1.1
		v3.9c0,0.5-0.1,0.9-0.3,1.3c-0.2,0.4-0.5,0.7-0.8,0.9c-0.3,0.2-0.7,0.4-1.1,0.5s-0.7,0.1-1.1,0.1c-0.5,0-1-0.1-1.4-0.2
		c-0.4-0.1-0.8-0.3-1.1-0.6c-0.3-0.2-0.5-0.5-0.6-0.8s-0.2-0.6-0.2-1v-5.3c0-0.1,0-0.3-0.1-0.4c0-0.1-0.1-0.2-0.3-0.3
		c-0.1-0.1-0.2-0.1-0.4-0.1c-0.2,0-0.3-0.1-0.4-0.1V9.1h3.7v0.4c-0.1,0-0.3,0-0.4,0.1c-0.2,0-0.3,0.1-0.4,0.1
		c-0.1,0.1-0.2,0.1-0.3,0.3c0,0.1-0.1,0.2-0.1,0.4v5c0,0.2,0,0.5,0.1,0.8c0.1,0.3,0.2,0.5,0.3,0.7c0.2,0.2,0.4,0.4,0.7,0.6
		c0.3,0.1,0.7,0.2,1.2,0.2c0.5,0,0.9-0.1,1.2-0.2c0.3-0.1,0.6-0.3,0.7-0.6c0.2-0.2,0.3-0.5,0.4-0.7c0.1-0.2,0.1-0.5,0.1-0.8v-3.7
		c0-0.5,0-0.9-0.1-1.1s-0.2-0.5-0.3-0.6c-0.1-0.1-0.3-0.2-0.6-0.2c-0.3-0.1-0.5-0.1-0.6-0.1V9.1h3.7V9.5z"/>
</g>
<g>
	<path class="st0" d="M73.5,38.8c0.4,0.4,0.7,0.9,0.9,1.5c0.2,0.6,0.3,1.2,0.3,1.9c0,0.7-0.1,1.4-0.3,1.9s-0.5,1.1-0.9,1.5
		c-0.4,0.4-0.8,0.7-1.4,0.9c-0.5,0.2-1.1,0.3-1.7,0.3c-0.6,0-1.2-0.1-1.7-0.4c-0.5-0.2-1-0.6-1.4-1c-0.4-0.4-0.7-0.9-0.9-1.5
		c-0.2-0.6-0.3-1.2-0.3-1.9c0-0.7,0.1-1.4,0.3-2c0.2-0.6,0.5-1.1,0.9-1.5c0.4-0.4,0.9-0.7,1.4-0.9s1.1-0.3,1.6-0.3
		c0.6,0,1.2,0.1,1.7,0.3S73.1,38.4,73.5,38.8z M72.6,45.2c0.2-0.4,0.4-0.8,0.5-1.3c0.1-0.5,0.2-1,0.2-1.6c0-0.6-0.1-1.2-0.2-1.7
		s-0.3-1-0.5-1.3c-0.2-0.4-0.5-0.6-0.9-0.8c-0.4-0.2-0.8-0.3-1.2-0.3c-0.5,0-0.9,0.1-1.3,0.3c-0.4,0.2-0.6,0.5-0.9,0.9
		c-0.2,0.4-0.4,0.8-0.5,1.3c-0.1,0.5-0.2,1-0.2,1.6c0,0.6,0.1,1.2,0.2,1.6s0.3,0.9,0.5,1.3c0.2,0.4,0.5,0.7,0.9,0.9
		c0.3,0.2,0.8,0.3,1.2,0.3c0.5,0,0.9-0.1,1.2-0.3C72,45.8,72.3,45.5,72.6,45.2z"/>
</g>
<g>
	<g>
		<path class="st0" d="M90.6,38.2c-0.1,0-0.3,0-0.5,0.1c-0.2,0.1-0.4,0.1-0.5,0.2c-0.2,0.1-0.3,0.3-0.3,0.6
			c-0.1,0.3-0.1,0.7-0.1,1.1v6.6h-0.6l-5.4-7.3v4.6c0,0.5,0,0.9,0.1,1.2s0.2,0.5,0.3,0.6c0.1,0.1,0.3,0.2,0.6,0.3s0.5,0.1,0.6,0.1
			v0.4h-3.7v-0.4c0.1,0,0.3,0,0.6-0.1c0.3-0.1,0.4-0.1,0.5-0.2c0.1-0.1,0.2-0.3,0.3-0.5s0.1-0.7,0.1-1.2v-4.4c0-0.2,0-0.4-0.1-0.6
			c-0.1-0.2-0.2-0.3-0.3-0.4c-0.2-0.1-0.4-0.3-0.6-0.4c-0.3-0.1-0.5-0.2-0.6-0.2v-0.4h2.6l5,6.8v-4.3c0-0.5,0-0.9-0.1-1.2
			c-0.1-0.3-0.2-0.5-0.3-0.6c-0.1-0.1-0.3-0.2-0.6-0.2c-0.3-0.1-0.5-0.1-0.6-0.1v-0.4h3.7V38.2z"/>
	</g>
</g>
<g>
	<g>
		<path class="st0" d="M102.4,42.6c0.2,0.2,0.3,0.4,0.4,0.7s0.1,0.5,0.1,0.9c0,0.8-0.3,1.4-0.9,2c-0.6,0.5-1.3,0.8-2.2,0.8
			c-0.4,0-0.8-0.1-1.2-0.2c-0.4-0.1-0.7-0.3-1-0.5l-0.3,0.5h-0.5l-0.1-3.1h0.5c0.1,0.4,0.2,0.7,0.4,1c0.1,0.3,0.3,0.6,0.6,0.9
			c0.2,0.2,0.5,0.4,0.8,0.6c0.3,0.1,0.6,0.2,1,0.2c0.3,0,0.5,0,0.8-0.1c0.2-0.1,0.4-0.2,0.5-0.3c0.1-0.1,0.2-0.3,0.3-0.5
			s0.1-0.4,0.1-0.6c0-0.4-0.1-0.7-0.3-1c-0.2-0.3-0.5-0.5-0.9-0.7c-0.3-0.1-0.6-0.2-0.9-0.4s-0.7-0.3-0.9-0.4
			c-0.5-0.2-0.9-0.5-1.2-0.9c-0.3-0.4-0.4-0.9-0.4-1.4c0-0.3,0.1-0.7,0.2-1c0.1-0.3,0.3-0.6,0.6-0.8c0.2-0.2,0.5-0.4,0.9-0.5
			c0.3-0.1,0.7-0.2,1-0.2c0.4,0,0.8,0.1,1.1,0.2c0.3,0.1,0.6,0.3,0.9,0.4l0.3-0.4h0.5l0.1,3h-0.5c-0.1-0.3-0.2-0.7-0.3-1
			c-0.1-0.3-0.3-0.6-0.5-0.8c-0.2-0.2-0.4-0.4-0.7-0.6s-0.6-0.2-1-0.2c-0.4,0-0.7,0.1-1,0.4c-0.3,0.3-0.4,0.6-0.4,0.9
			c0,0.4,0.1,0.7,0.3,1c0.2,0.3,0.4,0.5,0.8,0.6c0.3,0.1,0.6,0.3,0.9,0.4c0.3,0.1,0.6,0.2,0.9,0.3c0.3,0.1,0.5,0.2,0.7,0.4
			C102.1,42.3,102.3,42.4,102.4,42.6z"/>
	</g>
</g>
<g>
	<g>
		<path class="st0" d="M116.8,38.8c0.4,0.4,0.7,0.9,0.9,1.5c0.2,0.6,0.3,1.2,0.3,1.9c0,0.7-0.1,1.4-0.3,1.9s-0.5,1.1-0.9,1.5
			c-0.4,0.4-0.8,0.7-1.4,0.9c-0.5,0.2-1.1,0.3-1.7,0.3c-0.6,0-1.2-0.1-1.7-0.4c-0.5-0.2-1-0.6-1.4-1c-0.4-0.4-0.7-0.9-0.9-1.5
			c-0.2-0.6-0.3-1.2-0.3-1.9c0-0.7,0.1-1.4,0.3-2c0.2-0.6,0.5-1.1,0.9-1.5c0.4-0.4,0.9-0.7,1.4-0.9s1.1-0.3,1.6-0.3
			c0.6,0,1.2,0.1,1.7,0.3S116.4,38.4,116.8,38.8z M115.9,45.2c0.2-0.4,0.4-0.8,0.5-1.3c0.1-0.5,0.2-1,0.2-1.6c0-0.6-0.1-1.2-0.2-1.7
			s-0.3-1-0.5-1.3c-0.2-0.4-0.5-0.6-0.9-0.8c-0.4-0.2-0.8-0.3-1.2-0.3c-0.5,0-0.9,0.1-1.3,0.3c-0.4,0.2-0.6,0.5-0.9,0.9
			c-0.2,0.4-0.4,0.8-0.5,1.3c-0.1,0.5-0.2,1-0.2,1.6c0,0.6,0.1,1.2,0.2,1.6s0.3,0.9,0.5,1.3c0.2,0.4,0.5,0.7,0.9,0.9
			c0.3,0.2,0.8,0.3,1.2,0.3c0.5,0,0.9-0.1,1.2-0.3C115.4,45.8,115.7,45.5,115.9,45.2z"/>
	</g>
</g>
<g>
	<g>
		<path class="st0" d="M132,44l-0.2,2.7h-7v-0.4c0.1,0,0.2,0,0.4,0c0.2,0,0.3,0,0.4-0.1c0.1-0.1,0.2-0.1,0.3-0.2
			c0.1-0.1,0.1-0.2,0.1-0.4v-6.4c0-0.1,0-0.3-0.1-0.4c0-0.1-0.1-0.2-0.3-0.3c-0.1-0.1-0.2-0.1-0.4-0.1s-0.3-0.1-0.4-0.1v-0.4h3.8
			v0.4c-0.1,0-0.3,0-0.5,0.1c-0.2,0-0.3,0.1-0.4,0.1c-0.1,0.1-0.2,0.1-0.3,0.3c-0.1,0.1-0.1,0.3-0.1,0.4v6c0,0.3,0,0.5,0,0.6
			c0,0.2,0.1,0.3,0.2,0.4c0.1,0.1,0.2,0.1,0.4,0.1c0.2,0,0.5,0,0.8,0c0.2,0,0.3,0,0.5,0c0.2,0,0.3,0,0.5-0.1c0.1,0,0.3-0.1,0.4-0.1
			c0.1,0,0.2-0.1,0.3-0.2c0.2-0.2,0.4-0.5,0.6-0.9c0.2-0.4,0.4-0.7,0.5-1H132z"/>
	</g>
</g>
<g>
	<g>
		<path class="st0" d="M141.9,46.7h-4v-0.4c0.1,0,0.3,0,0.5,0c0.2,0,0.4,0,0.5-0.1c0.1-0.1,0.2-0.1,0.3-0.2c0.1-0.1,0.1-0.2,0.1-0.4
			V39c0-0.1,0-0.3-0.1-0.4c0-0.1-0.2-0.2-0.3-0.2c-0.1-0.1-0.3-0.1-0.5-0.1c-0.2,0-0.3-0.1-0.5-0.1v-0.4h4v0.4c-0.1,0-0.3,0-0.5,0
			s-0.3,0.1-0.5,0.1c-0.2,0.1-0.3,0.1-0.3,0.2c-0.1,0.1-0.1,0.2-0.1,0.4v6.5c0,0.1,0,0.3,0.1,0.4c0.1,0.1,0.2,0.2,0.3,0.3
			c0.1,0,0.2,0.1,0.4,0.1s0.4,0.1,0.5,0.1V46.7z"/>
	</g>
</g>
<g>
	<g>
		<path class="st0" d="M157.2,42.3c0,0.8-0.1,1.4-0.4,2c-0.3,0.6-0.7,1-1.1,1.4c-0.5,0.4-1,0.6-1.6,0.8s-1.2,0.3-1.8,0.3h-3.7v-0.4
			c0.1,0,0.3,0,0.5,0c0.2,0,0.3,0,0.4-0.1c0.1-0.1,0.2-0.1,0.3-0.2c0.1-0.1,0.1-0.2,0.1-0.4V39c0-0.1,0-0.3-0.1-0.4
			c0-0.1-0.1-0.2-0.3-0.3c-0.1-0.1-0.3-0.1-0.4-0.1c-0.2,0-0.3,0-0.4-0.1v-0.4h3.9c0.5,0,1.1,0.1,1.6,0.2c0.5,0.2,1,0.4,1.4,0.7
			c0.5,0.4,0.9,0.9,1.2,1.5C157,40.7,157.2,41.5,157.2,42.3z M155.6,42.3c0-0.6-0.1-1.1-0.2-1.6c-0.2-0.5-0.4-0.9-0.7-1.3
			c-0.3-0.3-0.6-0.6-1.1-0.8s-0.9-0.3-1.4-0.3c-0.2,0-0.4,0-0.6,0c-0.2,0-0.4,0-0.5,0v6.9c0,0.4,0.1,0.6,0.3,0.8s0.6,0.2,1,0.2
			c0.5,0,1-0.1,1.4-0.3c0.4-0.2,0.7-0.5,1-0.8c0.3-0.4,0.5-0.8,0.6-1.2S155.6,42.9,155.6,42.3z"/>
	</g>
</g>
<g>
	<g>
		<path class="st0" d="M172.3,46.7h-3.7v-0.4c0.3,0,0.6-0.1,0.8-0.1c0.2-0.1,0.3-0.1,0.3-0.2c0,0,0-0.1,0-0.1c0-0.1,0-0.1,0-0.1
			l-0.7-2h-3.2c-0.1,0.3-0.2,0.6-0.3,0.8c-0.1,0.2-0.1,0.4-0.2,0.6c-0.1,0.2-0.1,0.3-0.1,0.4c0,0.1,0,0.2,0,0.3
			c0,0.2,0.1,0.3,0.4,0.4s0.6,0.1,0.9,0.2v0.4h-3.4v-0.4c0.1,0,0.2,0,0.4-0.1c0.2,0,0.3-0.1,0.4-0.2c0.2-0.1,0.3-0.2,0.4-0.4
			s0.2-0.3,0.3-0.5c0.5-1.1,0.9-2.4,1.5-3.8s1-2.7,1.5-3.8h0.5l3,7.7c0.1,0.2,0.1,0.3,0.2,0.4s0.2,0.2,0.3,0.3
			c0.1,0.1,0.2,0.1,0.4,0.1s0.3,0.1,0.4,0.1V46.7z M168.7,43l-1.4-3.5L166,43H168.7z"/>
	</g>
</g>
<g>
	<g>
		<path class="st0" d="M185.3,40.2h-0.4c0-0.2-0.1-0.3-0.2-0.5c-0.1-0.2-0.2-0.4-0.3-0.6c-0.1-0.2-0.3-0.4-0.4-0.5
			c-0.1-0.1-0.3-0.2-0.4-0.2c-0.1,0-0.3,0-0.5,0c-0.2,0-0.4,0-0.6,0H182v7.2c0,0.1,0,0.3,0.1,0.4c0.1,0.1,0.2,0.2,0.3,0.3
			c0.1,0,0.2,0.1,0.5,0.1c0.2,0.1,0.4,0.1,0.6,0.1v0.4h-4.2v-0.4c0.1,0,0.3,0,0.5-0.1s0.4-0.1,0.5-0.1c0.1-0.1,0.2-0.1,0.3-0.2
			c0.1-0.1,0.1-0.2,0.1-0.4v-7.2h-0.4c-0.1,0-0.3,0-0.5,0s-0.4,0-0.6,0c-0.1,0-0.3,0.1-0.4,0.2c-0.1,0.1-0.3,0.3-0.4,0.5
			c-0.1,0.2-0.2,0.4-0.3,0.6c-0.1,0.2-0.2,0.4-0.2,0.5h-0.4v-2.4h7.8V40.2z"/>
	</g>
</g>
<g>
	<g>
		<path class="st0" d="M199.2,44.1l-0.2,2.6h-7.5v-0.4c0.1,0,0.3,0,0.5-0.1s0.3-0.1,0.4-0.1c0.1-0.1,0.2-0.1,0.3-0.2
			c0.1-0.1,0.1-0.2,0.1-0.4V39c0-0.1,0-0.3-0.1-0.4c0-0.1-0.1-0.2-0.3-0.3c-0.1-0.1-0.3-0.1-0.5-0.1c-0.2,0-0.3-0.1-0.5-0.1v-0.4
			h6.9v2.2H198c-0.1-0.3-0.3-0.7-0.5-1c-0.3-0.4-0.5-0.6-0.8-0.6c-0.1,0-0.3,0-0.5,0c-0.2,0-0.4,0-0.6,0h-1.4v3.6h1
			c0.3,0,0.6,0,0.7-0.1c0.2-0.1,0.3-0.2,0.4-0.3c0.1-0.1,0.2-0.3,0.2-0.5s0.1-0.4,0.1-0.6h0.5v3.5h-0.5c0-0.2-0.1-0.4-0.1-0.6
			c-0.1-0.2-0.2-0.4-0.2-0.5c-0.1-0.2-0.3-0.3-0.4-0.3c-0.2-0.1-0.4-0.1-0.7-0.1h-1V45c0,0.3,0,0.5,0.1,0.6c0,0.2,0.1,0.3,0.2,0.4
			c0.1,0.1,0.3,0.1,0.4,0.2c0.2,0,0.5,0,0.8,0c0.1,0,0.3,0,0.6,0s0.4,0,0.6,0c0.2,0,0.3,0,0.5-0.1c0.2,0,0.3-0.1,0.4-0.2
			c0.2-0.2,0.4-0.5,0.6-0.9c0.2-0.4,0.3-0.7,0.4-0.9H199.2z"/>
	</g>
</g>
<g>
	<g>
		<path class="st0" d="M214.2,42.3c0,0.8-0.1,1.4-0.4,2c-0.3,0.6-0.7,1-1.1,1.4c-0.5,0.4-1,0.6-1.6,0.8s-1.2,0.3-1.8,0.3h-3.7v-0.4
			c0.1,0,0.3,0,0.5,0c0.2,0,0.3,0,0.4-0.1c0.1-0.1,0.2-0.1,0.3-0.2c0.1-0.1,0.1-0.2,0.1-0.4V39c0-0.1,0-0.3-0.1-0.4
			c0-0.1-0.1-0.2-0.3-0.3c-0.1-0.1-0.3-0.1-0.4-0.1c-0.2,0-0.3,0-0.4-0.1v-0.4h3.9c0.5,0,1.1,0.1,1.6,0.2c0.5,0.2,1,0.4,1.4,0.7
			c0.5,0.4,0.9,0.9,1.2,1.5C214,40.7,214.2,41.5,214.2,42.3z M212.6,42.3c0-0.6-0.1-1.1-0.2-1.6c-0.2-0.5-0.4-0.9-0.7-1.3
			c-0.3-0.3-0.6-0.6-1.1-0.8s-0.9-0.3-1.4-0.3c-0.2,0-0.4,0-0.6,0c-0.2,0-0.4,0-0.5,0v6.9c0,0.4,0.1,0.6,0.3,0.8s0.6,0.2,1,0.2
			c0.5,0,1-0.1,1.4-0.3c0.4-0.2,0.7-0.5,1-0.8c0.3-0.4,0.5-0.8,0.6-1.2S212.6,42.9,212.6,42.3z"/>
	</g>
</g>
<path class="st0" d="M123,13.9c0.2,0.2,0.3,0.4,0.4,0.7s0.1,0.5,0.1,0.9c0,0.8-0.3,1.4-0.9,2c-0.6,0.5-1.3,0.8-2.2,0.8
	c-0.4,0-0.8-0.1-1.2-0.2c-0.4-0.1-0.7-0.3-1-0.5l-0.3,0.5h-0.5l-0.1-3.1h0.5c0.1,0.4,0.2,0.7,0.4,1c0.1,0.3,0.3,0.6,0.6,0.9
	c0.2,0.2,0.5,0.4,0.8,0.6c0.3,0.1,0.6,0.2,1,0.2c0.3,0,0.5,0,0.8-0.1c0.2-0.1,0.4-0.2,0.5-0.3c0.1-0.1,0.2-0.3,0.3-0.5
	s0.1-0.4,0.1-0.6c0-0.4-0.1-0.7-0.3-1c-0.2-0.3-0.5-0.5-0.9-0.7c-0.3-0.1-0.6-0.2-0.9-0.4s-0.7-0.3-0.9-0.4
	c-0.5-0.2-0.9-0.5-1.2-0.9c-0.3-0.4-0.4-0.9-0.4-1.4c0-0.3,0.1-0.7,0.2-1c0.1-0.3,0.3-0.6,0.6-0.8c0.2-0.2,0.5-0.4,0.9-0.5
	c0.3-0.1,0.7-0.2,1-0.2c0.4,0,0.8,0.1,1.1,0.2c0.3,0.1,0.6,0.3,0.9,0.4l0.3-0.4h0.5l0.1,3h-0.5c-0.1-0.3-0.2-0.7-0.3-1
	c-0.1-0.3-0.3-0.6-0.5-0.8c-0.2-0.2-0.4-0.4-0.7-0.6s-0.6-0.2-1-0.2c-0.4,0-0.7,0.1-1,0.4c-0.3,0.3-0.4,0.6-0.4,0.9
	c0,0.4,0.1,0.7,0.3,1c0.2,0.3,0.4,0.5,0.8,0.6c0.3,0.1,0.6,0.3,0.9,0.4c0.3,0.1,0.6,0.2,0.9,0.3c0.3,0.1,0.5,0.2,0.7,0.4
	C122.6,13.6,122.8,13.7,123,13.9z"/>
</svg>
