<svg id="Layer_1" xmlns="http://www.w3.org/2000/svg" viewBox="0 0 214.2 49.4"><style>.st0{fill:#fff}</style><path class="st0" d="M39.6 0v21.7h21.7V0H39.6zm15.2 18.6c-1.2 1-2.6 1.5-4.3 1.5-.8 0-1.6-.1-2.4-.4-.8-.2-1.5-.5-2.1-.9l-.5.9h-1l-.2-6.1h1c.2.8.5 1.4.7 2 .3.6.7 1.2 1.1 1.7.4.5.9.9 1.5 1.2.6.3 1.3.4 2 .4.6 0 1.1-.1 1.5-.2.4-.2.8-.4 1.1-.6.3-.3.5-.6.6-1 .1-.4.2-.8.2-1.3 0-.7-.2-1.4-.6-2-.4-.6-1-1.1-1.8-1.4-.5-.2-1.2-.5-1.9-.7-.7-.3-1.3-.5-1.8-.7-1-.5-1.8-1-2.3-1.8-.6-.7-.8-1.7-.8-2.9 0-.7.1-1.3.4-1.9.3-.6.7-1.1 1.2-1.6.5-.4 1.1-.8 1.7-1 .7-.2 1.4-.4 2.1-.4.8 0 1.6.1 2.2.4.7.3 1.2.5 1.8.9l.5-.9h1l.1 5.9h-1c-.2-.7-.4-1.3-.6-2-.2-.6-.5-1.2-.9-1.7-.4-.3-.8-.7-1.3-1-.5-.3-1.2-.4-1.9-.4-.8 0-1.5.3-2 .8-.6.5-.8 1.1-.8 1.9 0 .8.2 1.4.5 1.9.4.5.9.9 1.6 1.3.6.3 1.2.5 1.8.8.6.2 1.2.4 1.7.7.5.2 1 .5 1.5.7.5.3.9.6 1.2 1 .4.4.7.9.8 1.4.2.5.3 1.1.3 1.7-.1 1.4-.7 2.7-1.9 3.8zm-15.2 9.1v21.7h21.7V27.7H39.6zM58.3 35h-.6c-.3-1.3-.8-2.3-1.5-3.2-.2-.3-.4-.5-.6-.7s-.5-.4-.9-.7c-.4-.2-.8-.4-1.3-.5-.5-.1-1.1-.2-1.7-.2-1.9 0-3.4.8-4.5 2.3-1 1.5-1.6 3.7-1.6 6.6 0 2.9.5 5.1 1.6 6.5 1 1.5 2.5 2.2 4.5 2.2.6 0 1.2-.1 1.7-.2s1-.3 1.3-.5c.4-.2.6-.4.9-.7s.4-.5.6-.7c.7-.9 1.2-2 1.5-3.2h.6v6h-.6c-.1-.2-.2-.4-.3-.5l-.3-.3c-.1-.1-.3-.1-.5-.1-.3 0-.7.1-1.2.3-1.1.4-2.4.6-3.7.6-1.2 0-2.3-.2-3.4-.6s-2.1-1-2.9-1.8c-.9-.8-1.5-1.8-2.1-3s-.8-2.5-.8-4c0-1.2.2-2.2.5-3.3.3-1 .8-1.9 1.4-2.7.6-.8 1.3-1.4 2-2 .8-.6 1.6-1 2.5-1.2.9-.3 1.8-.4 2.7-.4 1.3 0 2.6.2 3.7.6.5.2.9.3 1.2.3.3 0 .5-.1.6-.2.2-.1.3-.4.5-.7h.6v6zM11.2 10.9l5.1-1.5-5.1-1.5.6-2.2-2.2.7-1.5-5.1-1.5 5.1-2.2-.7.7 2.2L0 9.4l5.1 1.5-.7 2.3 2.2-.7 1.5 5.1 1.5-5.1 2.2.7zm1.9 28.4l5-1.5-5-1.5.6-2.2-2.2.6-1.5-5-1.5 5-2.2-.6.6 2.2-5 1.5 5 1.5-.6 2.2 2.2-.6 1.5 5 1.5-5 2.2.6zm17.4-12.5l8.1-2.1-8.1-2.1 1-3.1-3.5.9-2.4-7.2-2.4 7.2-3.6-.9 1 3.1-8.1 2.1 8.1 2.1-1 3.1 3.6-.9 2.4 7.1L28 29l3.5.9z"/><path class="st0" d="M25.6 24.2h189.1v1H25.6zM71.9 18h-4v-.4h.5c.2 0 .4 0 .5-.1.1-.1.2-.1.3-.2.1-.1.1-.2.1-.4v-6.5c0-.1 0-.3-.1-.4 0-.1-.2-.2-.3-.2-.1-.1-.3-.1-.5-.1s-.3-.1-.5-.1v-.5h4v.4h-.5c-.2 0-.4.1-.5.2-.2.1-.3.1-.3.2-.1.1-.1.2-.1.4v6.5c0 .1 0 .3.1.4l.3.3c.1 0 .2.1.4.1s.4.1.5.1v.3zM88 18h-2.4c-.5-.8-1-1.6-1.5-2.2-.4-.6-.9-1.2-1.4-1.9h-.9v2.8c0 .1 0 .3.1.4 0 .1.1.2.3.3.1 0 .2.1.4.1h.5v.5h-3.8v-.4h.4c.2 0 .3 0 .4-.1.1-.1.2-.1.3-.2.1-.1.1-.2.1-.4v-6.5c0-.1 0-.3-.1-.4 0-.1-.1-.2-.3-.3-.1 0-.2-.1-.4-.1s-.3-.1-.4-.1v-.4h4.1c.4 0 .7 0 1.1.1.3.1.6.2.9.4.3.2.5.4.6.7.2.3.2.6.2 1 0 .3-.1.7-.2.9-.1.3-.3.5-.5.7-.2.2-.4.3-.7.5l-.9.3c.4.6.8 1.1 1.1 1.5s.7.9 1.1 1.5c.2.3.4.4.5.6.1.1.3.2.4.3.1.1.2.1.4.1s.3 0 .4.1v.2zm-3.4-6.7c0-.5-.2-1-.5-1.3-.3-.3-.8-.5-1.3-.5h-1.1v3.8h.8c.6 0 1.1-.2 1.5-.6.5-.2.6-.7.6-1.4zM98.5 18h-4v-.4h.5c.2 0 .4 0 .5-.1.1-.1.2-.1.3-.2.1-.1.1-.2.1-.4v-6.5c0-.1 0-.3-.1-.4 0-.1-.2-.2-.3-.2-.1-.1-.3-.1-.5-.1s-.3-.1-.5-.1v-.5h4v.4H98c-.2 0-.3.1-.5.1-.2.1-.3.1-.3.2-.1.1-.1.2-.1.4v6.5c0 .1 0 .3.1.4l.3.3c.1 0 .2.1.4.1s.4.1.5.1v.4zm13.3-8.5c-.1 0-.3 0-.5.1-.2 0-.4.1-.6.2-.1.1-.2.3-.3.6-.1.3-.1.7-.1 1.1v3.9c0 .5-.1.9-.3 1.3-.2.4-.5.7-.8.9-.3.2-.7.4-1.1.5s-.7.1-1.1.1c-.5 0-1-.1-1.4-.2-.4-.1-.8-.3-1.1-.6-.3-.2-.5-.5-.6-.8s-.2-.6-.2-1v-5.3c0-.1 0-.3-.1-.4 0-.1-.1-.2-.3-.3-.1-.1-.2-.1-.4-.1s-.3-.1-.4-.1v-.3h3.7v.4c-.1 0-.3 0-.4.1-.2 0-.3.1-.4.1-.1.1-.2.1-.3.3 0 .1-.1.2-.1.4v5c0 .2 0 .5.1.8.1.3.2.5.3.7.2.2.4.4.7.6.3.1.7.2 1.2.2s.9-.1 1.2-.2c.3-.1.6-.3.7-.6.2-.2.3-.5.4-.7.1-.2.1-.5.1-.8v-3.7c0-.5 0-.9-.1-1.1s-.2-.5-.3-.6c-.1-.1-.3-.2-.6-.2-.3-.1-.5-.1-.6-.1v-.6h3.7v.4zM73.5 38.8c.4.4.7.9.9 1.5.2.6.3 1.2.3 1.9s-.1 1.4-.3 1.9-.5 1.1-.9 1.5c-.4.4-.8.7-1.4.9-.5.2-1.1.3-1.7.3-.6 0-1.2-.1-1.7-.4-.5-.2-1-.6-1.4-1-.4-.4-.7-.9-.9-1.5-.2-.6-.3-1.2-.3-1.9s.1-1.4.3-2c.2-.6.5-1.1.9-1.5.4-.4.9-.7 1.4-.9s1.1-.3 1.6-.3c.6 0 1.2.1 1.7.3s1.1.8 1.5 1.2zm-.9 6.4c.2-.4.4-.8.5-1.3.1-.5.2-1 .2-1.6 0-.6-.1-1.2-.2-1.7s-.3-1-.5-1.3c-.2-.4-.5-.6-.9-.8-.4-.2-.8-.3-1.2-.3-.5 0-.9.1-1.3.3-.4.2-.6.5-.9.9-.2.4-.4.8-.5 1.3-.1.5-.2 1-.2 1.6 0 .6.1 1.2.2 1.6s.3.9.5 1.3.5.7.9.9c.3.2.8.3 1.2.3.5 0 .9-.1 1.2-.3.4-.3.7-.6 1-.9zm18-7c-.1 0-.3 0-.5.1s-.4.1-.5.2c-.2.1-.3.3-.3.6-.1.3-.1.7-.1 1.1v6.6h-.6l-5.4-7.3v4.6c0 .5 0 .9.1 1.2s.2.5.3.6c.1.1.3.2.6.3s.5.1.6.1v.4h-3.7v-.4c.1 0 .3 0 .6-.1s.4-.1.5-.2c.1-.1.2-.3.3-.5s.1-.7.1-1.2v-4.4c0-.2 0-.4-.1-.6-.1-.2-.2-.3-.3-.4-.2-.1-.4-.3-.6-.4-.3-.1-.5-.2-.6-.2v-.4h2.6l5 6.8v-4.3c0-.5 0-.9-.1-1.2-.1-.3-.2-.5-.3-.6-.1-.1-.3-.2-.6-.2-.3-.1-.5-.1-.6-.1v-.4h3.7v.3zm11.8 4.4c.2.2.3.4.4.7s.1.5.1.9c0 .8-.3 1.4-.9 2-.6.5-1.3.8-2.2.8-.4 0-.8-.1-1.2-.2-.4-.1-.7-.3-1-.5l-.3.5h-.5l-.1-3.1h.5c.1.4.2.7.4 1 .1.3.3.6.6.9.2.2.5.4.8.6.3.1.6.2 1 .2.3 0 .5 0 .8-.1.2-.1.4-.2.5-.3.1-.1.2-.3.3-.5s.1-.4.1-.6c0-.4-.1-.7-.3-1-.2-.3-.5-.5-.9-.7-.3-.1-.6-.2-.9-.4s-.7-.3-.9-.4c-.5-.2-.9-.5-1.2-.9-.3-.4-.4-.9-.4-1.4 0-.3.1-.7.2-1 .1-.3.3-.6.6-.8.2-.2.5-.4.9-.5.3-.1.7-.2 1-.2.4 0 .8.1 1.1.2.3.1.6.3.9.4l.3-.4h.5l.1 3h-.5c-.1-.3-.2-.7-.3-1-.1-.3-.3-.6-.5-.8-.2-.2-.4-.4-.7-.6s-.6-.2-1-.2-.7.1-1 .4c-.3.3-.4.6-.4.9 0 .4.1.7.3 1 .2.3.4.5.8.6.3.1.6.3.9.4l.9.3c.3.1.5.2.7.4.2.1.4.2.5.4zm14.4-3.8c.4.4.7.9.9 1.5.2.6.3 1.2.3 1.9s-.1 1.4-.3 1.9-.5 1.1-.9 1.5c-.4.4-.8.7-1.4.9-.5.2-1.1.3-1.7.3-.6 0-1.2-.1-1.7-.4-.5-.2-1-.6-1.4-1-.4-.4-.7-.9-.9-1.5-.2-.6-.3-1.2-.3-1.9s.1-1.4.3-2c.2-.6.5-1.1.9-1.5.4-.4.9-.7 1.4-.9s1.1-.3 1.6-.3c.6 0 1.2.1 1.7.3s1.1.8 1.5 1.2zm-.9 6.4c.2-.4.4-.8.5-1.3.1-.5.2-1 .2-1.6 0-.6-.1-1.2-.2-1.7s-.3-1-.5-1.3c-.2-.4-.5-.6-.9-.8-.4-.2-.8-.3-1.2-.3-.5 0-.9.1-1.3.3-.4.2-.6.5-.9.9-.2.4-.4.8-.5 1.3-.1.5-.2 1-.2 1.6 0 .6.1 1.2.2 1.6s.3.9.5 1.3.5.7.9.9c.3.2.8.3 1.2.3.5 0 .9-.1 1.2-.3.5-.3.8-.6 1-.9zM132 44l-.2 2.7h-7v-.4h.4c.2 0 .3 0 .4-.1.1-.1.2-.1.3-.2.1-.1.1-.2.1-.4v-6.4c0-.1 0-.3-.1-.4 0-.1-.1-.2-.3-.3-.1-.1-.2-.1-.4-.1s-.3-.1-.4-.1v-.4h3.8v.4c-.1 0-.3 0-.5.1-.2 0-.3.1-.4.1-.1.1-.2.1-.3.3-.1.1-.1.3-.1.4v6.6c0 .2.1.3.2.4.1.1.2.1.4.1h1.3c.2 0 .3 0 .5-.1.1 0 .3-.1.4-.1.1 0 .2-.1.3-.2.2-.2.4-.5.6-.9.2-.4.4-.7.5-1h.5zm9.9 2.7h-4v-.4h.5c.2 0 .4 0 .5-.1.1-.1.2-.1.3-.2.1-.1.1-.2.1-.4V39c0-.1 0-.3-.1-.4 0-.1-.2-.2-.3-.2-.1-.1-.3-.1-.5-.1s-.3-.1-.5-.1v-.4h4v.4h-.5c-.2 0-.3.1-.5.1-.2.1-.3.1-.3.2-.1.1-.1.2-.1.4v6.5c0 .1 0 .3.1.4l.3.3c.1 0 .2.1.4.1s.4.1.5.1v.4zm15.3-4.4c0 .8-.1 1.4-.4 2-.3.6-.7 1-1.1 1.4-.5.4-1 .6-1.6.8s-1.2.3-1.8.3h-3.7v-.4h.5c.2 0 .3 0 .4-.1.1-.1.2-.1.3-.2.1-.1.1-.2.1-.4V39c0-.1 0-.3-.1-.4 0-.1-.1-.2-.3-.3-.1-.1-.3-.1-.4-.1-.2 0-.3 0-.4-.1v-.4h3.9c.5 0 1.1.1 1.6.2.5.2 1 .4 1.4.7.5.4.9.9 1.2 1.5.2.6.4 1.4.4 2.2zm-1.6 0c0-.6-.1-1.1-.2-1.6-.2-.5-.4-.9-.7-1.3-.3-.3-.6-.6-1.1-.8s-.9-.3-1.4-.3h-1.1v6.9c0 .4.1.6.3.8s.6.2 1 .2c.5 0 1-.1 1.4-.3.4-.2.7-.5 1-.8.3-.4.5-.8.6-1.2s.2-1 .2-1.6zm16.7 4.4h-3.7v-.4c.3 0 .6-.1.8-.1.2-.1.3-.1.3-.2v-.2l-.7-2h-3.2c-.1.3-.2.6-.3.8-.1.2-.1.4-.2.6-.1.2-.1.3-.1.4v.3c0 .2.1.3.4.4s.6.1.9.2v.4h-3.4v-.4c.1 0 .2 0 .4-.1.2 0 .3-.1.4-.2.2-.1.3-.2.4-.4s.2-.3.3-.5c.5-1.1.9-2.4 1.5-3.8s1-2.7 1.5-3.8h.5l3 7.7c.1.2.1.3.2.4l.3.3c.1.1.2.1.4.1s.3.1.4.1v.4zm-3.6-3.7l-1.4-3.5L166 43h2.7zm16.6-2.8h-.4c0-.2-.1-.3-.2-.5l-.3-.6c-.1-.2-.3-.4-.4-.5-.1-.1-.3-.2-.4-.2H182v7.2c0 .1 0 .3.1.4l.3.3c.1 0 .2.1.5.1.2.1.4.1.6.1v.4h-4.2v-.4c.1 0 .3 0 .5-.1s.4-.1.5-.1c.1-.1.2-.1.3-.2.1-.1.1-.2.1-.4v-7.2h-1.5c-.1 0-.3.1-.4.2-.1.1-.3.3-.4.5l-.3.6c-.1.2-.2.4-.2.5h-.4v-2.4h7.8v2.3zm13.9 3.9l-.2 2.6h-7.5v-.4c.1 0 .3 0 .5-.1s.3-.1.4-.1c.1-.1.2-.1.3-.2.1-.1.1-.2.1-.4V39c0-.1 0-.3-.1-.4 0-.1-.1-.2-.3-.3-.1-.1-.3-.1-.5-.1s-.3-.1-.5-.1v-.4h6.9v2.2h-.3c-.1-.3-.3-.7-.5-1-.3-.4-.5-.6-.8-.6h-2.5v3.6h1c.3 0 .6 0 .7-.1.2-.1.3-.2.4-.3.1-.1.2-.3.2-.5s.1-.4.1-.6h.5v3.5h-.5c0-.2-.1-.4-.1-.6-.1-.2-.2-.4-.2-.5-.1-.2-.3-.3-.4-.3-.2-.1-.4-.1-.7-.1h-1V45c0 .3 0 .5.1.6 0 .2.1.3.2.4.1.1.3.1.4.2h2c.2 0 .3 0 .5-.1.2 0 .3-.1.4-.2.2-.2.4-.5.6-.9.2-.4.3-.7.4-.9h.4zm15-1.8c0 .8-.1 1.4-.4 2-.3.6-.7 1-1.1 1.4-.5.4-1 .6-1.6.8s-1.2.3-1.8.3h-3.7v-.4h.5c.2 0 .3 0 .4-.1.1-.1.2-.1.3-.2.1-.1.1-.2.1-.4V39c0-.1 0-.3-.1-.4 0-.1-.1-.2-.3-.3-.1-.1-.3-.1-.4-.1-.2 0-.3 0-.4-.1v-.4h3.9c.5 0 1.1.1 1.6.2.5.2 1 .4 1.4.7.5.4.9.9 1.2 1.5.2.6.4 1.4.4 2.2zm-1.6 0c0-.6-.1-1.1-.2-1.6-.2-.5-.4-.9-.7-1.3-.3-.3-.6-.6-1.1-.8s-.9-.3-1.4-.3h-1.1v6.9c0 .4.1.6.3.8s.6.2 1 .2c.5 0 1-.1 1.4-.3.4-.2.7-.5 1-.8.3-.4.5-.8.6-1.2s.2-1 .2-1.6zM123 13.9c.2.2.3.4.4.7s.1.5.1.9c0 .8-.3 1.4-.9 2-.6.5-1.3.8-2.2.8-.4 0-.8-.1-1.2-.2-.4-.1-.7-.3-1-.5l-.3.5h-.5l-.1-3.1h.5c.1.4.2.7.4 1 .1.3.3.6.6.9.2.2.5.4.8.6.3.1.6.2 1 .2.3 0 .5 0 .8-.1.2-.1.4-.2.5-.3.1-.1.2-.3.3-.5s.1-.4.1-.6c0-.4-.1-.7-.3-1-.2-.3-.5-.5-.9-.7-.3-.1-.6-.2-.9-.4s-.7-.3-.9-.4c-.5-.2-.9-.5-1.2-.9-.3-.4-.4-.9-.4-1.4 0-.3.1-.7.2-1 .1-.3.3-.6.6-.8.2-.2.5-.4.9-.5.3-.1.7-.2 1-.2.4 0 .8.1 1.1.2.3.1.6.3.9.4l.3-.4h.5l.1 3h-.5c-.1-.3-.2-.7-.3-1-.1-.3-.3-.6-.5-.8-.2-.2-.4-.4-.7-.6s-.6-.2-1-.2-.7.1-1 .4c-.3.3-.4.6-.4.9 0 .4.1.7.3 1 .2.3.4.5.8.6.3.1.6.3.9.4l.9.3c.3.1.5.2.7.4.1.1.3.2.5.4z"/></svg>